<svg xmlns="http://www.w3.org/2000/svg" width="64" height="64" viewBox="0 0 64 64" role="img" aria-label="Remy — Concerned">
  <!-- concerned: GENTLE, non-clinical — soft brows, eyes a touch down, small head tilt -->
  <g transform="rotate(-5 32 34)">
    <circle cx="32" cy="34" r="19" fill="#4F6B5B"/>
    <ellipse cx="32" cy="40" rx="11" ry="12" fill="#8FAE8A"/>
    <path d="M15 31 q-3 9 6 16 q4 -9 0 -17 z" fill="#3E5648"/>
    <circle cx="26.5" cy="30.5" r="4.2" fill="#fff"/><circle cx="26.9" cy="31.4" r="2" fill="#2F3E34"/>
    <circle cx="37.5" cy="30.5" r="4.2" fill="#fff"/><circle cx="37.9" cy="31.4" r="2" fill="#2F3E34"/>
    <path d="M22 25.5 q3 -1.6 6 0.4" fill="none" stroke="#3E5648" stroke-width="1.7" stroke-linecap="round"/>
    <path d="M36 25.9 q3 -2 6 -0.4" fill="none" stroke="#3E5648" stroke-width="1.7" stroke-linecap="round"/>
    <path d="M32 34 l-3 3 h6 z" fill="#C9A86A"/>
    <path d="M28.5 41 q3.5 -2 7 0" fill="none" stroke="#3E5648" stroke-width="1.6" stroke-linecap="round"/>
    <path d="M32 49 l-3.6 -3.8 a2.5 2.5 0 1 1 3.6 -1.1 a2.5 2.5 0 1 1 3.6 1.1 z" fill="#C9A86A"/>
  </g>
</svg>
