<svg xmlns="http://www.w3.org/2000/svg" width="64" height="64" viewBox="0 0 64 64" role="img" aria-label="Remy — Happy">
  <circle cx="32" cy="34" r="19" fill="#4F6B5B"/>
  <ellipse cx="32" cy="40" rx="11" ry="12" fill="#8FAE8A"/>
  <path d="M15 31 q-3 9 6 16 q4 -9 0 -17 z" fill="#3E5648"/>
  <!-- happy: upward-arc eyes + cheeks + open smiling beak -->
  <circle cx="22" cy="35" r="2.2" fill="#E3A24A" opacity="0.55"/>
  <circle cx="42" cy="35" r="2.2" fill="#E3A24A" opacity="0.55"/>
  <path d="M23 30 q3.5 -4 7 0" fill="none" stroke="#2F3E34" stroke-width="2.2" stroke-linecap="round"/>
  <path d="M35 30 q3.5 -4 7 0" fill="none" stroke="#2F3E34" stroke-width="2.2" stroke-linecap="round"/>
  <path d="M32 33 l-3 3 h6 z" fill="#C9A86A"/>
  <path d="M28 39 q4 4 8 0" fill="none" stroke="#3E5648" stroke-width="1.6" stroke-linecap="round"/>
  <path d="M32 49 l-3.6 -3.8 a2.5 2.5 0 1 1 3.6 -1.1 a2.5 2.5 0 1 1 3.6 1.1 z" fill="#C9A86A"/>
</svg>
