<svg xmlns="http://www.w3.org/2000/svg" width="64" height="64" viewBox="0 0 64 64" role="img" aria-label="Remy — Listening">
  <circle cx="32" cy="34" r="19" fill="#4F6B5B"/>
  <ellipse cx="32" cy="40" rx="11" ry="12" fill="#8FAE8A"/>
  <path d="M15 31 q-3 9 6 16 q4 -9 0 -17 z" fill="#3E5648"/>
  <!-- listening: attentive wide eyes + sound waves -->
  <circle cx="26.5" cy="29" r="4.7" fill="#fff"/><circle cx="27" cy="29.4" r="2.3" fill="#2F3E34"/>
  <circle cx="37.5" cy="29" r="4.7" fill="#fff"/><circle cx="38" cy="29.4" r="2.3" fill="#2F3E34"/>
  <path d="M32 33 l-3.2 3.6 h6.4 z" fill="#C9A86A"/>
  <path d="M51 26 q4 6 0 12" fill="none" stroke="#C9A86A" stroke-width="2" stroke-linecap="round"/>
  <path d="M55.5 23 q6 9 0 18" fill="none" stroke="#C9A86A" stroke-width="2" stroke-linecap="round" opacity="0.55"/>
  <path d="M32 49 l-3.6 -3.8 a2.5 2.5 0 1 1 3.6 -1.1 a2.5 2.5 0 1 1 3.6 1.1 z" fill="#C9A86A"/>
</svg>
