<svg xmlns="http://www.w3.org/2000/svg" width="64" height="64" viewBox="0 0 64 64" role="img" aria-label="Remy — Celebrating">
  <!-- celebrating: raised wings + sparkles + joyful eyes -->
  <path d="M14 30 q-7 -7 -3 -15 q9 5 7 17 z" fill="#3E5648"/>
  <path d="M50 30 q7 -7 3 -15 q-9 5 -7 17 z" fill="#3E5648"/>
  <circle cx="32" cy="35" r="18" fill="#4F6B5B"/>
  <ellipse cx="32" cy="41" rx="10.5" ry="11.5" fill="#8FAE8A"/>
  <path d="M24 31 q3.5 -4.5 7 0" fill="none" stroke="#2F3E34" stroke-width="2.2" stroke-linecap="round"/>
  <path d="M34 31 q3.5 -4.5 7 0" fill="none" stroke="#2F3E34" stroke-width="2.2" stroke-linecap="round"/>
  <path d="M32 34 l-3 3 h6 z" fill="#C9A86A"/>
  <path d="M28 40 q4 4 8 0" fill="none" stroke="#3E5648" stroke-width="1.6" stroke-linecap="round"/>
  <g fill="#C9A86A">
    <path d="M10 12 l1.2 3 3 1.2 -3 1.2 -1.2 3 -1.2 -3 -3 -1.2 3 -1.2 z"/>
    <path d="M54 14 l1 2.4 2.4 1 -2.4 1 -1 2.4 -1 -2.4 -2.4 -1 2.4 -1 z"/>
    <circle cx="48" cy="6" r="1.6"/><circle cx="16" cy="4" r="1.4"/>
  </g>
  <path d="M32 50 l-3.6 -3.8 a2.5 2.5 0 1 1 3.6 -1.1 a2.5 2.5 0 1 1 3.6 1.1 z" fill="#E3A24A"/>
</svg>
