<svg xmlns="http://www.w3.org/2000/svg" width="64" height="64" viewBox="0 0 64 64" role="img" aria-label="Remy — Thinking">
  <circle cx="32" cy="34" r="19" fill="#4F6B5B"/>
  <ellipse cx="32" cy="40" rx="11" ry="12" fill="#8FAE8A"/>
  <path d="M15 31 q-3 9 6 16 q4 -9 0 -17 z" fill="#3E5648"/>
  <!-- thinking: eyes glancing up + rising thought dots -->
  <circle cx="26.5" cy="29" r="4.4" fill="#fff"/><circle cx="26.9" cy="27.4" r="2.1" fill="#2F3E34"/>
  <circle cx="37.5" cy="29" r="4.4" fill="#fff"/><circle cx="37.9" cy="27.4" r="2.1" fill="#2F3E34"/>
  <path d="M32 33 l-3.2 3.6 h6.4 z" fill="#C9A86A"/>
  <circle cx="47" cy="20" r="1.5" fill="#C9A86A"/>
  <circle cx="51" cy="15.5" r="2.1" fill="#C9A86A"/>
  <circle cx="56" cy="10.5" r="2.7" fill="#C9A86A"/>
  <path d="M32 49 l-3.6 -3.8 a2.5 2.5 0 1 1 3.6 -1.1 a2.5 2.5 0 1 1 3.6 1.1 z" fill="#C9A86A"/>
</svg>
