<svg xmlns="http://www.w3.org/2000/svg" width="64" height="64" viewBox="0 0 64 64" role="img" aria-label="RemyNest">
  <!-- Favicon: bold, simplified Remy Bird on purple — legible at 16px (no thin strokes). -->
  <rect width="64" height="64" rx="14" fill="#5B3E8E"/>
  <path d="M14 36 C 14 50 23 56 32 56 C 41 56 50 50 50 36" fill="none" stroke="#C9A86A" stroke-width="4.5" stroke-linecap="round"/>
  <path d="M32 16 C 30.3 13.8 27.6 13 27.6 10.8 C 27.6 9.4 28.7 8.5 29.9 8.5 C 30.9 8.5 31.6 9 32 9.8 C 32.4 9 33.1 8.5 34.1 8.5 C 35.3 8.5 36.4 9.4 36.4 10.8 C 36.4 13 33.7 13.8 32 16 Z" fill="#E3A24A"/>
  <path d="M19 35 L9 30.5 L13.5 40 Z" fill="#C9A86A"/>
  <ellipse cx="31" cy="33" rx="12" ry="10" fill="#F3E7C8"/>
  <path d="M42 30 L50 32 L42 35 Z" fill="#E3A24A"/>
  <circle cx="38" cy="30" r="2.1" fill="#5B3E8E"/>
</svg>
